<svg width="70" height="33" viewBox="0 0 70 33" fill="none" xmlns="http://www.w3.org/2000/svg">
<path d="M0.880695 25.9223C0.636057 25.9223 0.428115 25.8359 0.256869 25.6631C0.085623 25.4902 0 25.2804 0 25.0335V0.888764C0 0.617197 0.085623 0.407351 0.256869 0.259224C0.428115 0.086408 0.636057 0 0.880695 0H4.33008C4.59918 0 4.80712 0.086408 4.95391 0.259224C5.12515 0.407351 5.21077 0.617197 5.21077 0.888764V16.8495C5.21077 19.406 7.26442 21.4785 9.79772 21.4785H16.8433C17.1124 21.4785 17.3326 21.5649 17.5038 21.7377C17.675 21.9105 17.7607 22.1203 17.7607 22.3672V25.0335C17.7607 25.2804 17.675 25.4902 17.5038 25.6631C17.3326 25.8359 17.1124 25.9223 16.8433 25.9223H0.880695Z" fill="white"/>
<path d="M20.9626 32.9583C20.7669 32.9583 20.5835 32.8843 20.4122 32.7361C20.2654 32.588 20.192 32.4152 20.192 32.2177C20.192 32.0449 20.241 31.8474 20.3388 31.6252L23.2378 24.7743L16.1922 7.99888C16.0944 7.77669 16.0454 7.60387 16.0454 7.48043C16.0699 7.25824 16.1555 7.07308 16.3023 6.92495C16.4491 6.75214 16.6326 6.66573 16.8527 6.66573H19.8985C20.3388 6.66573 20.6568 6.90027 20.8526 7.36933L25.7331 19.4417L30.687 7.36933C30.9316 6.90027 31.2741 6.66573 31.7145 6.66573H34.6868C34.907 6.66573 35.0905 6.73979 35.2372 6.88792C35.384 7.03605 35.4574 7.20887 35.4574 7.40637C35.4574 7.57918 35.4085 7.77669 35.3106 7.99888L24.9258 32.2547C24.7301 32.7238 24.3876 32.9583 23.8983 32.9583H20.9626Z" fill="white"/>
<path d="M39.5011 25.9223C39.2565 25.9223 39.0485 25.8359 38.8773 25.6631C38.706 25.4902 38.6204 25.2804 38.6204 25.0335V7.59153C38.6204 7.31996 38.706 7.09777 38.8773 6.92495C39.0485 6.75214 39.2565 6.66573 39.5011 6.66573H42.5101C42.7792 6.66573 42.9994 6.75214 43.1706 6.92495C43.3419 7.09777 43.4275 7.31996 43.4275 7.59153V9.10983C44.6507 7.48043 46.4121 6.66573 48.7117 6.66573H50.2529C50.522 6.66573 50.7299 6.75214 50.8767 6.92495C51.048 7.07308 51.1336 7.28293 51.1336 7.5545V10.2578C51.1336 10.5047 51.048 10.7145 50.8767 10.8874C50.7299 11.0602 50.522 11.1466 50.2529 11.1466H47.3539C46.2042 11.1466 45.299 11.4799 44.6385 12.1464C43.978 12.813 43.6477 13.7265 43.6477 14.8868V25.0335C43.6477 25.2804 43.5621 25.4902 43.3908 25.6631C43.2196 25.8359 43.0116 25.9223 42.767 25.9223H39.5011Z" fill="white"/>
<path d="M59.2482 26.2926C58.0005 26.2926 56.8507 26.0457 55.7988 25.552C54.7713 25.0335 53.9518 24.3423 53.3402 23.4782C52.7531 22.6141 52.4595 21.6636 52.4595 20.6267C52.4595 18.948 53.1323 17.5901 54.4778 16.5532C55.8233 15.5163 57.6703 14.8127 60.0188 14.4424L65.0461 13.7018V12.9241C65.0461 11.8625 64.777 11.0602 64.2388 10.517C63.7006 9.97391 62.8444 9.70234 61.6701 9.70234C60.8628 9.70234 60.2145 9.85047 59.7252 10.1467C59.236 10.443 58.8323 10.7516 58.5143 11.0725C58.2207 11.3688 58.025 11.5663 57.9272 11.665C57.8293 11.9613 57.6458 12.1094 57.3767 12.1094H54.5145C54.2943 12.1094 54.0986 12.0353 53.9273 11.8872C53.7805 11.7391 53.7072 11.5416 53.7072 11.2947C53.7316 10.6775 54.0252 9.98625 54.5878 9.22093C55.175 8.43091 56.0679 7.752 57.2666 7.18418C58.4653 6.59167 59.9454 6.29541 61.7068 6.29541C64.5935 6.29541 66.6974 6.94964 68.0184 8.2581C69.3395 9.56656 70 11.2824 70 13.4055V25.0335C70 25.2804 69.9144 25.4902 69.7431 25.6631C69.5963 25.8359 69.3884 25.9223 69.1193 25.9223H66.0736C65.8289 25.9223 65.621 25.8359 65.4497 25.6631C65.2785 25.4902 65.1929 25.2804 65.1929 25.0335V23.5893C64.6547 24.3793 63.8963 25.0335 62.9178 25.552C61.9392 26.0457 60.716 26.2926 59.2482 26.2926ZM60.4958 22.7375C61.8413 22.7375 62.9422 22.2932 63.7984 21.4044C64.6547 20.5156 65.0828 19.2319 65.0828 17.5531V16.8125L61.4132 17.405C58.5999 17.8493 57.1932 18.7998 57.1932 20.2564C57.1932 21.0464 57.5113 21.6636 58.1473 22.108C58.8078 22.5277 59.5907 22.7375 60.4958 22.7375Z" fill="white"/>
<path d="M6.88281 15.2153C6.88281 14.8898 7.10679 14.608 7.4216 14.5375L12.7078 13.352C13.1994 13.2417 13.6379 13.6843 13.5287 14.1804L12.354 19.515C12.284 19.8327 12.0048 20.0588 11.6823 20.0588H10.9346C8.69687 20.0588 6.88281 18.2281 6.88281 15.9698V15.2153Z" fill="url(#paint0_linear_11507_17780)"/>
<defs>
<linearGradient id="paint0_linear_11507_17780" x1="6.88281" y1="17.0619" x2="13.6282" y2="16.6811" gradientUnits="userSpaceOnUse">
<stop stop-color="#3C9CD2"/>
<stop offset="1" stop-color="#3CD2C9"/>
</linearGradient>
</defs>
</svg>
