<svg width="97" height="46" viewBox="0 0 97 46" fill="none" xmlns="http://www.w3.org/2000/svg">
<path d="M1.22039 36.1798C0.881394 36.1798 0.593246 36.0592 0.355947 35.818C0.118649 35.5768 0 35.2839 0 34.9393V1.24045C0 0.861423 0.118649 0.56854 0.355947 0.361799C0.593246 0.1206 0.881394 0 1.22039 0H6.00025C6.37315 0 6.6613 0.1206 6.8647 0.361799C7.102 0.56854 7.22064 0.861423 7.22064 1.24045V23.5168C7.22064 27.085 10.0664 29.9775 13.5768 29.9775H23.34C23.7129 29.9775 24.018 30.0981 24.2553 30.3393C24.4926 30.5805 24.6112 30.8734 24.6112 31.218V34.9393C24.6112 35.2839 24.4926 35.5768 24.2553 35.818C24.018 36.0592 23.7129 36.1798 23.34 36.1798H1.22039Z" fill="#0F0F0F"/>
<path d="M29.0482 46C28.777 46 28.5228 45.8966 28.2855 45.6899C28.0821 45.4831 27.9804 45.2419 27.9804 44.9663C27.9804 44.7251 28.0482 44.4494 28.1838 44.1393L32.2009 34.5775L22.4378 11.164C22.3022 10.8539 22.2344 10.6127 22.2344 10.4405C22.2683 10.1303 22.3869 9.87191 22.5903 9.66517C22.7937 9.42397 23.048 9.30337 23.3531 9.30337H27.5736C28.1838 9.30337 28.6245 9.63071 28.8957 10.2854L35.6587 27.1348L42.5234 10.2854C42.8624 9.63071 43.337 9.30337 43.9472 9.30337H48.066C48.3711 9.30337 48.6253 9.40674 48.8287 9.61348C49.0321 9.82023 49.1338 10.0614 49.1338 10.3371C49.1338 10.5783 49.066 10.8539 48.9304 11.164L34.54 45.018C34.2688 45.6727 33.7942 46 33.1162 46H29.0482Z" fill="#0F0F0F"/>
<path d="M54.7372 36.1798C54.3982 36.1798 54.1101 36.0592 53.8728 35.818C53.6355 35.5768 53.5168 35.2839 53.5168 34.9393V10.5955C53.5168 10.2165 53.6355 9.90637 53.8728 9.66517C54.1101 9.42397 54.3982 9.30337 54.7372 9.30337H58.9069C59.2798 9.30337 59.5849 9.42397 59.8222 9.66517C60.0595 9.90637 60.1781 10.2165 60.1781 10.5955V12.7146C61.8731 10.4404 64.3139 9.30337 67.5005 9.30337H69.6362C70.0091 9.30337 70.2972 9.42397 70.5006 9.66517C70.7379 9.87191 70.8565 10.1648 70.8565 10.5438V14.3169C70.8565 14.6614 70.7379 14.9543 70.5006 15.1955C70.2972 15.4367 70.0091 15.5573 69.6362 15.5573H65.619C64.0258 15.5573 62.7715 16.0225 61.8562 16.9528C60.9409 17.8831 60.4832 19.1581 60.4832 20.7775V34.9393C60.4832 35.2839 60.3646 35.5768 60.1273 35.818C59.89 36.0592 59.6018 36.1798 59.2628 36.1798H54.7372Z" fill="#0F0F0F"/>
<path d="M82.1011 36.6966C80.3722 36.6966 78.7789 36.3521 77.3212 35.6629C75.8974 34.9393 74.7618 33.9745 73.9143 32.7685C73.1007 31.5625 72.6939 30.236 72.6939 28.7888C72.6939 26.4457 73.6261 24.5506 75.4906 23.1034C77.3551 21.6562 79.9145 20.6742 83.1689 20.1573L90.1353 19.1236V18.0382C90.1353 16.5566 89.7624 15.4367 89.0166 14.6787C88.2708 13.9206 87.0843 13.5416 85.4571 13.5416C84.3384 13.5416 83.4401 13.7483 82.7621 14.1618C82.0841 14.5753 81.5248 15.006 81.0841 15.4539C80.6773 15.8674 80.4061 16.1431 80.2705 16.2809C80.1349 16.6944 79.8806 16.9011 79.5077 16.9011H75.5415C75.2364 16.9011 74.9652 16.7978 74.7279 16.591C74.5245 16.3843 74.4228 16.1086 74.4228 15.764C74.4567 14.9026 74.8635 13.9378 75.6432 12.8697C76.4568 11.767 77.6941 10.8195 79.3552 10.027C81.0163 9.2 83.0672 8.78652 85.508 8.78652C89.5082 8.78652 92.4235 9.69963 94.2541 11.5258C96.0847 13.3521 97 15.7468 97 18.7101V34.9393C97 35.2839 96.8813 35.5768 96.644 35.818C96.4406 36.0592 96.1525 36.1798 95.7796 36.1798H91.5591C91.2201 36.1798 90.9319 36.0592 90.6946 35.818C90.4573 35.5768 90.3387 35.2839 90.3387 34.9393V32.9236C89.5929 34.0262 88.542 34.9393 87.186 35.6629C85.83 36.3521 84.135 36.6966 82.1011 36.6966ZM83.8299 31.7348C85.6944 31.7348 87.2199 31.1146 88.4064 29.8742C89.5929 28.6337 90.1861 26.842 90.1861 24.4989V23.4652L85.1012 24.2921C81.2027 24.9124 79.2535 26.239 79.2535 28.2719C79.2535 29.3745 79.6942 30.236 80.5756 30.8562C81.4909 31.4419 82.5757 31.7348 83.8299 31.7348Z" fill="#0F0F0F"/>
<path d="M9.53125 21.2366C9.53125 20.7824 9.84162 20.3892 10.2779 20.2906L17.603 18.6361C18.2842 18.4822 18.8919 19.0999 18.7405 19.7923L17.1127 27.2378C17.0158 27.6812 16.6289 27.9967 16.182 27.9967H15.1459C12.045 27.9967 9.53125 25.4416 9.53125 22.2898V21.2366Z" fill="url(#paint0_linear_11547_3609)"/>
<defs>
<linearGradient id="paint0_linear_11547_3609" x1="9.53125" y1="23.8139" x2="18.8788" y2="23.2901" gradientUnits="userSpaceOnUse">
<stop stop-color="#3C9CD2"/>
<stop offset="1" stop-color="#3CD2C9"/>
</linearGradient>
</defs>
</svg>
